HIERARCHY
ROOT Hips
{
	OFFSET 0.00000 0.00000 0.00000
	CHANNELS 6 Xposition Yposition Zposition Zrotation Yrotation Xrotation 
	JOINT LHipJoint
	{
		OFFSET 0 0 0
		CHANNELS 3 Zrotation Yrotation Xrotation
		JOINT LeftHip
		{
			OFFSET 1.57358 -1.76629 0.73362
			CHANNELS 3 Zrotation Yrotation Xrotation
			JOINT LeftKnee
			{
				OFFSET 2.40600 -6.61045 0.00000
				CHANNELS 3 Zrotation Yrotation Xrotation
				JOINT LeftAnkle
				{
					OFFSET 2.66168 -7.31291 0.00000
					CHANNELS 3 Zrotation Yrotation Xrotation
					JOINT LeftToe
					{
						OFFSET 0.20870 -0.57341 2.12506
						CHANNELS 3 Zrotation Yrotation Xrotation
						End Site
						{
							OFFSET 0.00000 -0.00000 1.10557
						}
					}
				}
			}
		}
	}
	JOINT RHipJoint
	{
		OFFSET 0 0 0
		CHANNELS 3 Zrotation Yrotation Xrotation
		JOINT RightHip
		{
			OFFSET -1.49299 -1.76629 0.73362
			CHANNELS 3 Zrotation Yrotation Xrotation
			JOINT RightKnee
			{
				OFFSET -2.43663 -6.69460 0.00000
				CHANNELS 3 Zrotation Yrotation Xrotation
				JOINT RightAnkle
				{
					OFFSET -2.62959 -7.22474 0.00000
					CHANNELS 3 Zrotation Yrotation Xrotation
					JOINT RightToe
					{
						OFFSET -0.25784 -0.70841 2.21862
						CHANNELS 3 Zrotation Yrotation Xrotation
						End Site
						{
							OFFSET -0.00000 -0.00000 1.16452
						}
					}
				}
			}
		}
	}
	JOINT lowerback
	{
		OFFSET 0 0 0
		CHANNELS 3 Zrotation Yrotation Xrotation
		JOINT Chest
		{
			OFFSET -0.00034 2.12399 -0.25450
			CHANNELS 3 Zrotation Yrotation Xrotation
			JOINT Chest2
			{
				OFFSET 0.05594 2.14379 -0.03318
				CHANNELS 3 Zrotation Yrotation Xrotation
				JOINT lowerneck
				{
					OFFSET 0 0 0
					CHANNELS 3 Zrotation Yrotation Xrotation
					JOINT Neck
					{
						OFFSET -0.09835 1.62725 0.24211
						CHANNELS 3 Zrotation Yrotation Xrotation
						JOINT Head
						{
							OFFSET 0.10849 1.66041 -0.22648
							CHANNELS 3 Zrotation Yrotation Xrotation
							End Site
							{
								OFFSET 0.04385 1.68267 -0.10541
							}
						}
					}
				}
				JOINT LeftCollar
				{
					OFFSET 0 0 0
					CHANNELS 3 Zrotation Yrotation Xrotation
					JOINT LeftShoulder
					{
						OFFSET 3.29108 0.79398 -0.68179
CHANNELS 3 Zrotation Xrotation Yrotation
						JOINT LeftElbow
						{
OFFSET 0 -5.153100 -0.000000
CHANNELS 3 Zrotation Xrotation Yrotation
							JOINT LeftWrist
							{
OFFSET 0 -3.751380 -0.000000
CHANNELS 3 Zrotation Xrotation Yrotation
								JOINT lhand
								{
									OFFSET 0 0 0
CHANNELS 3 Zrotation Xrotation Yrotation
									JOINT LFingers
									{
OFFSET 0 -0.529170 0.000000
CHANNELS 3 Zrotation Xrotation Yrotation
										End Site
										{
OFFSET 0 -0.426630 0.000000
										}
									}
								}
								JOINT LThumb
								{
OFFSET 0 0.000000 0.000000
CHANNELS 3 Zrotation Xrotation Yrotation
									End Site
									{
OFFSET 0 -0.433150 0.433150
									}
								}
							}
						}
					}
				}
				JOINT RightCollar
				{
					OFFSET 0 0 0
					CHANNELS 3 Zrotation Yrotation Xrotation
					JOINT RightShoulder
					{
						OFFSET -3.07414 1.06285 -0.44338
CHANNELS 3 Zrotation Xrotation Yrotation
						JOINT RightElbow
						{
OFFSET 0 -5.296130 0.000000
CHANNELS 3 Zrotation Xrotation Yrotation
							JOINT RightWrist
							{
OFFSET 0 -3.761440 -0.000000
CHANNELS 3 Zrotation Xrotation Yrotation
								JOINT rhand
								{
									OFFSET 0 0 0
CHANNELS 3 Zrotation Xrotation Yrotation
									JOINT RFingers
									{
OFFSET 0 -0.747320 0.000000
CHANNELS 3 Zrotation Xrotation Yrotation
										End Site
										{
OFFSET 0 -0.602510 0.000000
										}
									}
								}
								JOINT RThumb
								{
OFFSET 0 0.000000 0.000000
CHANNELS 3 Zrotation Xrotation Yrotation
									End Site
									{
OFFSET 0 -0.611710 0.611710
									}
								}
							}
						}
					}
				}
			}
		}
	}
}
MOTION
Frames: 9
Frame Time: 0.008333333333333333
0.300358 16.655959 4.727340 5.591581 6.448181 4.637168 0.000000 0.000000 0.000000 -30.241804 -12.506847 -20.722935 5.940833 14.370700 44.743734 1.097749 -6.623675 -18.695179 0.022292 -0.925135 -2.543049 0.000000 0.000000 0.000000 11.513559 -6.683951 -22.421213 -25.632463 -19.218991 106.678412 -0.265880 -7.411437 9.834939 -0.854986 -5.828035 16.306108 -4.056190 2.618448 12.196726 -0.761391 2.864860 0.581221 0.977535 1.509387 -6.392666 -10.565931 -6.723083 -19.912590 12.291365 -8.251903 11.178373 4.755706 -3.306606 7.678781 0.000000 0.000000 0.000000 0.895012 14.271720 -46.423642 140.173402 -47.964967 101.689122 13.832833 -29.660423 -7.134865 0.000000 0.000000 0.000000 -7.125000 0.000000 0.000000 -10.974480 37.123511 -2.158073 0.000000 0.000000 0.000000 -4.166696 20.612042 45.445865 -125.419600 -54.680380 -90.125853 -18.905952 -21.629802 -30.743130 0.000000 0.000000 0.000000 7.125000 0.000000 0.000000 7.082311 -1.959842 7.377225
0.299975 16.647778 4.850621 5.777042 6.242142 4.680305 0.000000 0.000000 0.000000 -30.507612 -12.305542 -20.251404 5.933598 14.363601 44.714503 1.150848 -6.406526 -19.155937 0.027475 -1.050106 -2.886747 0.000000 0.000000 0.000000 11.063777 -6.583253 -23.241040 -25.779588 -19.177972 107.124836 -0.249540 -7.021312 9.483916 -0.734658 -5.433605 15.160524 -4.265969 2.632444 12.250478 -0.834773 2.846379 0.565963 1.018306 1.505961 -6.444998 -10.526693 -6.687248 -19.959671 12.274394 -8.207910 11.196718 4.749418 -3.283618 7.684844 0.000000 0.000000 0.000000 0.818835 13.731359 -46.551926 140.360306 -47.853902 101.828066 13.750999 -29.720869 -7.191795 0.000000 0.000000 0.000000 -7.125000 0.000000 0.000000 -11.052640 37.175934 -2.159718 0.000000 0.000000 0.000000 -4.019187 20.976227 45.289995 -125.098801 -54.788741 -89.864260 -18.706855 -21.570506 -30.849891 0.000000 0.000000 0.000000 7.125000 0.000000 0.000000 7.209333 -2.030227 7.519775
0.298850 16.641367 4.974897 5.907959 6.040995 4.717676 0.000000 0.000000 0.000000 -30.708706 -12.093306 -19.775990 5.920756 14.350957 44.662567 1.201421 -6.220614 -19.589416 0.032951 -1.166874 -3.208013 0.000000 0.000000 0.000000 10.705163 -6.449878 -24.066125 -25.910187 -19.140837 107.521695 -0.232687 -6.683841 9.128922 -0.635354 -5.095205 14.181194 -4.439157 2.645672 12.288941 -0.886047 2.834140 0.551866 1.061417 1.504788 -6.487130 -10.493032 -6.650912 -19.993811 12.259187 -8.163263 11.215261 4.744906 -3.260870 7.689060 0.000000 0.000000 0.000000 0.740456 13.202703 -46.688444 140.551175 -47.739373 101.969611 13.700295 -29.765797 -7.230251 0.000000 0.000000 0.000000 -7.125000 0.000000 0.000000 -11.101606 37.211640 -2.159993 0.000000 0.000000 0.000000 -3.888123 21.339022 45.139055 -124.803700 -54.887345 -89.623360 -18.529467 -21.557133 -30.934194 0.000000 0.000000 0.000000 7.125000 0.000000 0.000000 7.321110 -2.082101 7.644150
0.295830 16.639474 5.101716 5.899643 5.852333 4.740326 0.000000 0.000000 0.000000 -30.744608 -11.853168 -19.290666 5.893598 14.324160 44.552674 1.245550 -6.114439 -19.953262 0.039171 -1.262704 -3.472018 0.000000 0.000000 0.000000 10.579268 -6.233089 -24.904635 -25.998602 -19.113611 107.792033 -0.214522 -6.480778 8.763791 -0.589715 -4.899827 13.626252 -4.518940 2.656941 12.288378 -0.880886 2.837837 0.540733 1.110504 1.509363 -6.503221 -10.473604 -6.613297 -19.994915 12.248481 -8.116949 11.234305 4.744929 -3.238738 7.688565 0.000000 0.000000 0.000000 0.656459 12.703924 -46.845981 140.752165 -47.616003 102.117796 13.729053 -29.771116 -7.221552 0.000000 0.000000 0.000000 -7.125000 0.000000 0.000000 -11.076048 37.204676 -2.156770 0.000000 0.000000 0.000000 -3.799032 21.698271 45.000697 -124.574200 -54.961042 -89.435284 -18.407493 -21.660986 -30.961171 0.000000 0.000000 0.000000 7.125000 0.000000 0.000000 7.393974 -2.086721 7.722130
0.292810 16.637581 5.228535 5.891326 5.663671 4.762976 0.000000 0.000000 0.000000 -30.780511 -11.613030 -18.805343 5.866440 14.297363 44.442781 1.289678 -6.008265 -20.317109 0.045392 -1.358534 -3.736023 0.000000 0.000000 0.000000 10.453373 -6.016300 -25.743145 -26.087017 -19.086386 108.062371 -0.196356 -6.277715 8.398660 -0.544076 -4.704448 13.071309 -4.598723 2.668210 12.287815 -0.875725 2.841533 0.529599 1.159591 1.513938 -6.519313 -10.454177 -6.575682 -19.996020 12.237776 -8.070634 11.253349 4.744951 -3.216607 7.688069 0.000000 0.000000 0.000000 0.572461 12.205145 -47.003519 140.953155 -47.492632 102.265980 13.757811 -29.776435 -7.212852 0.000000 0.000000 0.000000 -7.125000 0.000000 0.000000 -11.050491 37.197712 -2.153547 0.000000 0.000000 0.000000 -3.709941 22.057519 44.862339 -124.344700 -55.034740 -89.247208 -18.285520 -21.764839 -30.988149 0.000000 0.000000 0.000000 7.125000 0.000000 0.000000 7.466838 -2.091341 7.800110
0.289790 16.635688 5.355354 5.883010 5.475009 4.785626 0.000000 0.000000 0.000000 -30.816413 -11.372892 -18.320019 5.839282 14.270566 44.332888 1.333807 -5.902090 -20.680955 0.051612 -1.454363 -4.000028 0.000000 0.000000 0.000000 10.327478 -5.799512 -26.581655 -26.175432 -19.059160 108.332709 -0.178191 -6.074651 8.033529 -0.498438 -4.509070 12.516367 -4.678506 2.679478 12.287251 -0.870564 2.845229 0.518465 1.208677 1.518513 -6.535405 -10.434749 -6.538066 -19.997124 12.227071 -8.024319 11.272393 4.744974 -3.194475 7.687573 0.000000 0.000000 0.000000 0.488464 11.706367 -47.161057 141.154145 -47.369262 102.414165 13.786569 -29.781754 -7.204153 0.000000 0.000000 0.000000 -7.125000 0.000000 0.000000 -11.024933 37.190747 -2.150324 0.000000 0.000000 0.000000 -3.620850 22.416768 44.723980 -124.115200 -55.108438 -89.059132 -18.163547 -21.868692 -31.015126 0.000000 0.000000 0.000000 7.125000 0.000000 0.000000 7.539702 -2.095961 7.878090
0.286770 16.633794 5.482173 5.874694 5.286347 4.808277 0.000000 0.000000 0.000000 -30.852315 -11.132755 -17.834695 5.812125 14.243768 44.222994 1.377936 -5.795916 -21.044802 0.057832 -1.550193 -4.264033 0.000000 0.000000 0.000000 10.201584 -5.582723 -27.420165 -26.263847 -19.031935 108.603047 -0.160026 -5.871588 7.668398 -0.452799 -4.313692 11.961424 -4.758289 2.690747 12.286688 -0.865403 2.848925 0.507332 1.257764 1.523088 -6.551497 -10.415322 -6.500451 -19.998228 12.216365 -7.978005 11.291438 4.744996 -3.172343 7.687077 0.000000 0.000000 0.000000 0.404466 11.207588 -47.318594 141.355135 -47.245891 102.562349 13.815327 -29.787073 -7.195453 0.000000 0.000000 0.000000 -7.125000 0.000000 0.000000 -10.999376 37.183783 -2.147101 0.000000 0.000000 0.000000 -3.531759 22.776017 44.585622 -123.885700 -55.182136 -88.871056 -18.041574 -21.972545 -31.042104 0.000000 0.000000 0.000000 7.125000 0.000000 0.000000 7.612566 -2.100581 7.956070
0.281847 16.635689 5.612436 5.770914 5.117726 4.868400 0.000000 0.000000 0.000000 -30.763750 -10.894768 -17.378642 5.774842 14.206218 44.070642 1.408932 -5.638242 -21.301062 0.067650 -1.665435 -4.582145 0.000000 0.000000 0.000000 10.271297 -5.360243 -28.288974 -26.309897 -19.017233 108.744312 -0.144848 -5.715685 7.319368 -0.395019 -3.987319 11.046763 -4.791673 2.688180 12.187882 -0.811540 2.850280 0.504306 1.337016 1.524980 -6.503889 -10.399530 -6.456936 -20.006032 12.208343 -7.921717 11.302907 4.747798 -3.145282 7.684374 0.000000 0.000000 0.000000 0.289485 10.698361 -47.470080 141.570399 -47.109750 102.719802 13.915225 -29.759390 -7.226606 0.000000 0.000000 0.000000 -7.125000 0.000000 0.000000 -10.921271 37.221563 -2.121478 0.000000 0.000000 0.000000 -3.480122 23.089209 44.470845 -123.752348 -55.223956 -88.761543 -18.027701 -22.107915 -30.998416 0.000000 0.000000 0.000000 7.125000 0.000000 0.000000 7.615412 -2.054044 7.953108
0.276573 16.638280 5.743334 5.649549 4.952796 4.935427 0.000000 0.000000 0.000000 -30.652257 -10.657177 -16.927981 5.735694 14.166687 43.910467 1.437510 -5.471081 -21.537503 0.078130 -1.784253 -4.910224 0.000000 0.000000 0.000000 10.377043 -5.136716 -29.163363 -26.348143 -19.004837 108.861801 -0.130222 -5.568469 6.973304 -0.335001 -3.636815 10.065839 -4.816509 2.683064 12.070980 -0.748705 2.851204 0.502773 1.421825 1.526377 -6.444548 -10.384407 -6.412334 -20.015069 12.200816 -7.863593 11.312981 4.751111 -3.117313 7.681263 0.000000 0.000000 0.000000 0.168796 10.187209 -47.620450 141.788292 -46.971257 102.878962 14.028228 -29.725629 -7.265100 0.000000 0.000000 0.000000 -7.125000 0.000000 0.000000 -10.833488 37.267584 -2.091729 0.000000 0.000000 0.000000 -3.435385 23.393917 44.360411 -123.636708 -55.259903 -88.666502 -18.033741 -22.249090 -30.941712 0.000000 0.000000 0.000000 7.125000 0.000000 0.000000 7.605360 -1.998083 7.935236
